<?xml version="1.0" encoding="UTF-8"?>
<!-- John Simpson <jms1@jms1.net> 2026-07-28 Tue
     - written by hand
     - License: CC-BY-SA 4.0 https://creativecommons.org/licenses/by-sa/4.0/
-->
<svg xmlns="http://www.w3.org/2000/svg"
    viewBox="0 0 121 121">
    <g stroke="white" stroke-width="2" fill="none">
        <rect  x="1"  y="1" width="40" height="40" rx="3" ry="3"/>
        <rect x="41"  y="1" width="40" height="40" rx="3" ry="3"/>
        <rect x="81"  y="1" width="40" height="40" rx="3" ry="3"/>
        <rect  x="1" y="41" width="40" height="40" rx="3" ry="3"/>
        <rect x="41" y="41" width="40" height="40" rx="3" ry="3"/>
        <rect x="81" y="41" width="40" height="40" rx="3" ry="3"/>
        <rect  x="1" y="81" width="40" height="40" rx="3" ry="3"/>
        <rect x="41" y="81" width="40" height="40" rx="3" ry="3"/>
        <rect x="81" y="81" width="40" height="40" rx="3" ry="3"/>
    </g>
    <g stroke="cyan" stroke-width="0.5" fill="cyan">
        <circle  cx="61"  cy="21" r="16"/>
        <circle cx="101"  cy="61" r="16"/>
        <circle  cx="21" cy="101" r="16"/>
        <circle  cx="61" cy="101" r="16"/>
        <circle cx="101" cy="101" r="16"/>
    </g>
</svg>
